<svg xmlns="http://www.w3.org/2000/svg" viewBox="0 0 200 200"><rect width="200" height="200" fill="white"/><g fill="#111"><path d="M12 12h56v56H12zm9 9v38h38V21zm9 9h20v20H30zM132 12h56v56h-56zm9 9v38h38V21zm9 9h20v20h-20zM12 132h56v56H12zm9 9v38h38v-38zm9 9h20v20H30z"/><path d="M82 12h12v12H82zm24 0h12v24h-12zM82 36h24v12H82zm36 12h12v24h-12zM82 60h12v24H82zm24 12h24v12h-24zM72 92h24v12H72zm36-8h12v24h-12zm24 0h24v12h-24zm36 0h20v12h-20zM12 84h36v12H12zm48 24h24v12H60zm36 0h12v36H96zm24-12h12v24h-12zm24 12h44v12h-44zm-72 24h12v36H72zm36 0h36v12h-36zm48 0h32v12h-32zm-48 24h12v32h-12zm24 0h24v12h-24zm36 0h20v32h-12v-12h-8zM84 176h12v12H84zm48 0h24v12h-24z"/></g></svg>
